<?xml version="1.0" standalone="no"?>
<!DOCTYPE svg PUBLIC "-//W3C//DTD SVG 20010904//EN"
 "http://www.w3.org/TR/2001/REC-SVG-20010904/DTD/svg10.dtd">
<svg version="1.0" xmlns="http://www.w3.org/2000/svg"
 width="300.000000pt" height="300.000000pt" viewBox="0 0 300.000000 300.000000"
 preserveAspectRatio="xMidYMid meet">

<g transform="translate(0.000000,300.000000) scale(0.100000,-0.100000)"
fill="#5fffa8" stroke="none">
<path d="M859 2527 c-96 -36 -140 -101 -140 -209 -1 -45 5 -69 25 -103 l26
-44 -2 -338 -3 -338 -100 -6 c-55 -3 -95 -6 -88 -7 15 -3 35 -60 22 -67 -5 -4
-9 -17 -9 -31 0 -14 -4 -22 -10 -19 -6 3 -7 -1 -4 -9 3 -9 7 -16 8 -16 8 1 79
29 74 30 -5 0 2 10 13 21 12 12 17 24 13 28 -5 3 -9 13 -10 22 -1 12 9 16 42
16 l44 1 0 -174 c0 -109 -4 -174 -10 -174 -5 0 -10 -4 -10 -10 0 -5 7 -7 15
-4 12 5 14 -7 14 -70 0 -42 -5 -76 -10 -76 -5 0 -9 -36 -9 -80 0 -51 4 -80 11
-80 7 0 10 23 7 64 -2 52 0 62 11 58 10 -4 12 -1 6 7 -6 10 -3 11 12 3 14 -8
26 -7 43 1 21 11 27 10 43 -6 15 -15 16 -21 5 -35 -11 -13 -11 -15 5 -9 14 5
17 0 19 -31 0 -20 0 -45 -1 -56 -1 -16 1 -17 14 -6 17 15 19 7 5 -21 -7 -13
-7 -19 0 -19 5 0 10 -5 10 -10 0 -17 -33 -7 -52 15 -20 24 -15 33 8 14 16 -13
16 -12 3 9 -8 13 -20 20 -29 17 -8 -3 -6 3 6 13 17 14 18 20 8 30 -18 17 -29
15 -15 -2 9 -11 8 -17 -8 -28 -12 -8 -18 -18 -13 -23 4 -4 -3 -3 -15 4 -33 17
-53 13 -62 -11 -15 -40 2 -63 40 -60 19 2 40 9 47 15 10 8 12 7 10 -2 -4 -15
18 -18 163 -24 59 -3 111 -7 116 -10 6 -4 25 -2 43 3 20 6 39 6 50 0 10 -5 20
-6 24 -3 3 4 36 9 74 12 l67 6 3 133 c2 124 4 132 22 132 16 0 20 -7 20 -34 0
-43 13 -47 118 -37 7 1 12 15 12 36 0 35 22 50 33 23 4 -10 8 -10 15 1 13 19
32 5 32 -24 0 -13 3 -30 6 -39 7 -19 40 -21 47 -3 3 9 9 9 24 1 27 -17 53 5
53 45 0 33 8 39 28 19 8 -8 12 -53 12 -134 l0 -123 43 -6 c23 -4 47 -5 52 -4
6 1 17 0 25 -4 33 -12 60 -15 60 -6 0 12 73 0 81 -14 4 -5 10 -3 15 6 8 13 17
14 49 7 22 -5 41 -7 44 -5 2 3 5 93 6 202 2 109 4 228 4 266 l1 67 64 0 c55 0
64 3 69 20 3 12 -1 24 -11 30 -13 7 -5 9 30 10 l46 0 7 103 c3 56 5 179 3 272
l-3 170 -80 3 c-43 2 -85 8 -93 14 -10 9 -16 8 -23 -3 -7 -9 -9 52 -6 184 3
176 2 197 -13 197 -12 0 -15 8 -13 33 5 41 -11 67 -29 49 -14 -14 -52 -16 -43
-2 11 17 -27 11 -40 -7 -12 -16 -40 -9 -30 8 4 5 -3 9 -14 9 -11 0 -23 -4 -26
-10 -3 -5 -13 -10 -21 -10 -8 0 -12 5 -9 10 10 16 -31 12 -45 -5 -7 -8 -10
-24 -7 -35 6 -24 -7 -34 -53 -37 -36 -2 -36 -2 -32 34 3 25 1 34 -7 29 -6 -4
-11 -2 -11 3 0 22 -30 10 -31 -11 -1 -19 -2 -19 -6 -5 -3 11 -11 16 -19 13 -9
-3 -12 -1 -9 4 3 6 -3 10 -14 10 -12 0 -21 -4 -21 -8 0 -4 -9 -8 -19 -8 -11 0
-17 4 -15 8 3 4 -4 8 -15 8 -12 0 -21 -4 -21 -8 0 -4 -9 -8 -19 -8 -11 0 -17
4 -15 8 6 9 -18 11 -40 2 -10 -4 -16 -18 -16 -40 0 -52 -28 -45 -33 9 l-4 42
-1 -42 c-1 -31 -6 -43 -17 -43 -10 0 -15 10 -15 26 0 15 -8 33 -17 40 -24 18
-33 17 -33 -2 0 -14 -3 -14 -15 -4 -8 7 -15 9 -15 4 0 -5 -4 -2 -10 6 -8 12
-12 12 -36 0 -21 -12 -28 -12 -31 -2 -3 6 -12 12 -22 12 -9 0 -23 -6 -30 -12
-11 -10 -14 -10 -18 -1 -3 8 -18 11 -46 7 l-42 -6 -3 99 c-2 54 -5 99 -6 101
-2 1 -25 4 -52 6 -27 2 -65 13 -85 25 -46 27 -123 35 -170 18z m-82 -213 c-3
-3 -12 -4 -19 -1 -8 3 -5 6 6 6 11 1 17 -2 13 -5z m20 -30 c-3 -3 -12 -4 -19
-1 -8 3 -5 6 6 6 11 1 17 -2 13 -5z m23 -18 c0 -2 -9 -6 -20 -9 -11 -3 -18 -1
-14 4 5 9 34 13 34 5z m390 -43 c0 -7 -7 -13 -15 -13 -15 0 -21 31 -8 43 8 8
23 -12 23 -30z m130 16 c0 -6 -4 -7 -10 -4 -5 3 -10 11 -10 16 0 6 5 7 10 4 6
-3 10 -11 10 -16z m620 6 c0 -8 -4 -15 -10 -15 -5 0 -7 7 -4 15 4 8 8 15 10
15 2 0 4 -7 4 -15z m40 5 c0 -5 -5 -10 -11 -10 -5 0 -7 5 -4 10 3 6 8 10 11
10 2 0 4 -4 4 -10z m64 -5 c-4 -8 -8 -15 -10 -15 -2 0 -4 7 -4 15 0 8 4 15 10
15 5 0 7 -7 4 -15z m-449 -5 c3 -5 1 -10 -4 -10 -6 0 -11 5 -11 10 0 6 2 10 4
10 3 0 8 -4 11 -10z m70 0 c3 -5 1 -10 -4 -10 -6 0 -11 5 -11 10 0 6 2 10 4
10 3 0 8 -4 11 -10z m415 0 c0 -5 -5 -10 -11 -10 -5 0 -7 5 -4 10 3 6 8 10 11
10 2 0 4 -4 4 -10z m-1259 -43 c-10 -9 -11 -8 -5 6 3 10 9 15 12 12 3 -3 0
-11 -7 -18z m883 -12 c-16 -11 -16 -13 2 -23 17 -10 18 -11 1 -12 -10 0 -20 7
-23 15 -4 8 -10 12 -15 9 -5 -3 -7 -10 -4 -15 4 -5 -2 -9 -11 -9 -16 0 -16 1
1 20 13 14 14 20 5 20 -7 0 -10 3 -7 6 4 4 13 2 21 -5 11 -9 15 -8 20 4 3 9
11 13 17 10 6 -5 4 -11 -7 -20z m356 -9 c0 -19 -5 -22 -30 -21 -37 2 -42 7
-34 30 7 16 8 16 17 -6 7 -17 11 -20 14 -9 2 8 6 21 9 28 6 20 24 4 24 -22z
m36 18 c-3 -9 -6 -23 -6 -31 0 -22 -6 -14 -14 20 -5 21 -3 27 10 27 11 0 14
-5 10 -16z m-846 -25 c0 -3 -6 -6 -14 -6 -8 0 -11 8 -8 20 4 14 7 16 13 5 5
-7 9 -16 9 -19z m377 -6 c-3 -10 -5 -4 -5 12 0 17 2 24 5 18 2 -7 2 -21 0 -30z
m333 -3 c5 0 11 9 14 20 5 17 6 17 4 -2 -4 -28 -33 -31 -34 -3 -1 15 0 16 3 3
3 -10 8 -18 13 -18z m-635 1 c-9 -16 -25 -3 -18 15 4 10 9 12 15 6 6 -6 7 -15
3 -21z m55 19 c-13 -9 -13 -11 0 -20 9 -6 10 -10 3 -10 -15 0 -26 17 -18 30 3
6 12 10 18 10 7 0 6 -4 -3 -10z m50 -15 c0 -14 -4 -25 -9 -25 -5 0 -8 11 -7
25 1 33 16 33 16 0z m673 -45 c-13 -5 -23 -15 -23 -21 0 -7 -3 -9 -6 -6 -10
10 16 37 35 36 11 0 9 -3 -6 -9z m-952 -28 c0 -10 3 -12 5 -5 3 7 12 9 20 6 9
-3 14 1 14 13 0 9 2 15 5 12 3 -3 2 -19 -1 -37 -5 -25 -9 -29 -20 -20 -11 9
-14 8 -14 -1 0 -20 -10 -6 -20 29 -5 19 -5 29 1 26 5 -4 9 -14 10 -23z m106
-29 c-4 -15 -5 -14 -6 5 0 12 -5 22 -10 22 -5 0 -12 -10 -14 -22 -3 -14 -5 -8
-6 15 l-1 38 21 -20 c12 -11 19 -27 16 -38z m77 13 c1 -22 -2 -32 -8 -26 -12
12 -17 41 -11 59 8 22 17 6 19 -33z m203 11 c10 -33 9 -34 -17 -33 -25 1 -26
3 -17 34 13 41 21 41 34 -1z m610 11 c6 -7 13 -25 17 -40 5 -23 3 -28 -18 -34
-14 -3 -31 -4 -38 -1 -7 3 -1 6 14 6 15 1 29 5 32 10 4 5 -3 7 -14 4 -15 -4
-20 0 -21 13 0 11 -2 27 -4 37 -4 20 18 23 32 5z m-860 -35 c-3 -10 -5 -4 -5
12 0 17 2 24 5 18 2 -7 2 -21 0 -30z m108 26 c4 -6 -2 -13 -14 -16 -11 -3 -18
-9 -15 -14 3 -5 11 -6 17 -3 9 5 9 4 0 -6 -14 -15 -33 -5 -33 19 0 30 31 44
45 20z m188 -1 c-6 -7 -13 -20 -16 -28 -3 -9 -6 -3 -6 13 -1 19 4 27 15 27 12
0 14 -4 7 -12z m37 -3 c-6 -8 -9 -19 -5 -25 3 -5 1 -10 -4 -10 -12 0 -15 33
-4 43 13 14 25 7 13 -8z m68 -9 c5 -24 -10 -38 -31 -30 -17 6 -23 35 -10 48
12 12 38 1 41 -18z m47 9 c6 -1 16 4 24 9 12 9 13 7 8 -7 -4 -10 -7 -22 -7
-27 0 -4 -11 -7 -25 -7 -14 0 -25 3 -25 7 0 5 -3 16 -7 26 -5 13 -3 15 8 8 8
-5 19 -9 24 -9z m158 -15 c-4 -4 -19 -11 -33 -14 -21 -6 -23 -5 -8 6 15 11 15
13 0 25 -14 11 -11 11 16 2 19 -6 30 -15 25 -19z m67 19 l33 -12 -24 -13 c-13
-7 -31 -13 -39 -13 -9 0 -4 6 10 14 18 10 20 14 8 15 -9 0 -20 5 -23 10 -8 13
-5 13 35 -1z m-492 -16 c-10 -2 -26 -2 -35 0 -10 3 -2 5 17 5 19 0 27 -2 18
-5z m-499 -57 c-3 -3 -11 5 -18 17 -13 21 -12 21 5 5 10 -10 16 -20 13 -22z
m-67 -26 c3 -32 0 -40 -12 -38 -9 2 -15 14 -15 30 1 15 -3 24 -7 22 -10 -6
-11 10 -1 19 17 18 31 4 35 -33z m184 9 c-30 -24 -33 -45 -9 -71 24 -26 123
-26 147 1 23 25 13 56 -22 76 -15 8 -21 14 -14 15 17 0 62 -45 62 -62 0 -8 -7
-24 -16 -36 -13 -19 -24 -22 -84 -22 -60 0 -71 3 -84 22 -9 12 -16 30 -16 40
0 20 34 58 51 58 7 0 0 -9 -15 -21z m715 -15 c-26 -32 -26 -42 -3 -67 13 -16
14 -19 2 -15 -26 8 -35 53 -16 82 9 14 21 26 27 26 6 0 1 -12 -10 -26z m139
16 c10 -5 22 -24 25 -42 11 -47 -20 -68 -94 -67 l-56 2 55 6 c63 7 76 13 83
40 9 35 -19 60 -71 64 l-47 3 43 2 c24 1 52 -2 62 -8z m194 -1 c-2 -4 -22 -7
-44 -7 -22 -1 -38 3 -35 8 3 5 23 8 44 7 22 -1 37 -5 35 -8z m-477 -5 c-3 -3
-12 -4 -19 -1 -8 3 -5 6 6 6 11 1 17 -2 13 -5z m-701 -32 c-17 -16 -18 -16 -5
5 7 12 15 20 18 17 3 -2 -3 -12 -13 -22z m1051 -24 c-2 -13 -4 -5 -4 17 -1 22
1 32 4 23 2 -10 2 -28 0 -40z m163 1 c0 -16 -4 -28 -8 -25 -5 3 -8 15 -6 28 3
28 3 28 9 28 3 0 5 -14 5 -31z m-1280 -28 c45 -4 53 -11 12 -11 -18 0 -32 -4
-32 -10 0 -5 16 -10 35 -10 24 0 35 5 35 15 0 8 5 15 10 15 6 0 10 -9 10 -19
0 -16 -9 -20 -58 -23 l-59 -3 -1 35 c-1 19 2 30 6 25 4 -6 23 -12 42 -14z
m480 -5 c-7 -7 -14 -6 -21 1 -9 9 -7 12 9 10 14 -1 18 -5 12 -11z m60 4 c0 -5
-2 -10 -4 -10 -3 0 -8 5 -11 10 -3 6 -1 10 4 10 6 0 11 -4 11 -10z m47 -12 c2
-18 0 -20 -7 -8 -12 18 -13 30 -2 30 4 0 9 -10 9 -22z m63 12 c0 -5 -4 -10 -9
-10 -6 0 -13 5 -16 10 -3 6 1 10 9 10 9 0 16 -4 16 -10z m97 4 c-3 -3 -12 -4
-19 -1 -8 3 -5 6 6 6 11 1 17 -2 13 -5z m-3 -22 c3 -5 -1 -9 -9 -9 -8 0 -12 4
-9 9 3 4 7 8 9 8 2 0 6 -4 9 -8z m383 -8 c-3 -3 -12 -4 -19 -1 -8 3 -5 6 6 6
11 1 17 -2 13 -5z m153 -14 c0 -13 -5 -18 -15 -14 -12 5 -15 -4 -15 -51 0 -53
-1 -55 -17 -40 -11 12 -29 16 -60 13 -44 -3 -48 1 -33 37 7 17 9 17 9 3 1 -14
10 -18 36 -18 21 0 35 -5 36 -12 1 -20 18 24 18 48 1 19 -4 22 -41 20 -24 0
-44 4 -44 9 -1 6 3 8 10 6 6 -2 16 -3 21 -2 6 0 27 2 48 3 20 2 37 6 37 10 0
5 2 8 5 8 3 0 5 -9 5 -20z m-163 -80 c-3 -66 -1 -80 12 -83 9 -3 -1 -5 -23 -6
-31 -1 -36 1 -27 13 6 7 9 22 5 32 -5 16 -4 16 5 4 12 -17 13 -14 11 63 -1 36
3 57 10 57 8 0 10 -25 7 -80z m-970 -17 c-2 -16 -4 -3 -4 27 0 30 2 43 4 28 2
-16 2 -40 0 -55z m1140 -35 c-2 -13 -4 -5 -4 17 -1 22 1 32 4 23 2 -10 2 -28
0 -40z m116 15 c-7 -2 -21 -2 -30 0 -10 3 -4 5 12 5 17 0 24 -2 18 -5z m-162
-46 c-10 -9 -11 -8 -5 6 3 10 9 15 12 12 3 -3 0 -11 -7 -18z m226 3 c1 -11 -2
-18 -8 -15 -11 7 -12 35 -1 35 4 0 8 -9 9 -20z m-184 -202 c-3 -112 -7 -205
-9 -207 -2 -3 -10 1 -17 8 -9 11 -9 14 1 18 9 4 12 50 12 187 0 157 3 196 16
196 1 0 0 -91 -3 -202z m-1302 184 c11 -5 13 -14 8 -32 l-6 -25 -12 25 -11 25
5 -28 c4 -19 2 -26 -5 -22 -11 7 -14 65 -2 64 4 0 14 -3 23 -7z m86 -39 c-3
-10 -5 -2 -5 17 0 19 2 27 5 18 2 -10 2 -26 0 -35z m-24 30 c-7 -2 -19 -2 -25
0 -7 3 -2 5 12 5 14 0 19 -2 13 -5z m104 -90 c-3 -10 -5 -4 -5 12 0 17 2 24 5
18 2 -7 2 -21 0 -30z m991 20 c-10 -2 -26 -2 -35 0 -10 3 -2 5 17 5 19 0 27
-2 18 -5z m289 -15 c-3 -8 -6 -5 -6 6 -1 11 2 17 5 13 3 -3 4 -12 1 -19z
m-1472 -21 c28 0 59 4 70 8 18 8 19 7 6 -8 -7 -9 -19 -17 -26 -17 -16 0 -50
-38 -42 -47 4 -3 7 -2 7 4 0 8 41 33 56 33 16 0 -13 -22 -58 -44 -62 -31 -78
-32 -78 -7 0 11 -4 23 -10 26 -5 3 -10 20 -10 37 0 25 3 29 18 23 9 -4 40 -7
67 -8z m1402 -9 c-3 -8 -6 -5 -6 6 -1 11 2 17 5 13 3 -3 4 -12 1 -19z m53 6
c0 -8 -5 -12 -10 -9 -6 4 -8 11 -5 16 9 14 15 11 15 -7z m-277 -1 c-7 -2 -21
-2 -30 0 -10 3 -4 5 12 5 17 0 24 -2 18 -5z m294 -45 c-3 -7 -5 -2 -5 12 0 14
2 19 5 13 2 -7 2 -19 0 -25z m-287 14 c0 -4 -9 -8 -20 -9 -11 -1 -20 2 -20 5
0 4 9 8 20 9 11 1 20 -2 20 -5z m250 -32 c0 -5 -9 -10 -20 -10 -11 0 -20 5
-20 10 0 6 9 10 20 10 11 0 20 -4 20 -10z m-252 -7 c-10 -2 -26 -2 -35 0 -10
3 -2 5 17 5 19 0 27 -2 18 -5z m305 -47 c-3 -4 -9 -2 -14 5 -13 22 -11 31 5
17 8 -7 12 -17 9 -22z m-305 7 c-10 -2 -26 -2 -35 0 -10 3 -2 5 17 5 19 0 27
-2 18 -5z m-1111 -43 c2 -21 -11 -27 -22 -10 -7 11 2 30 13 30 4 0 8 -9 9 -20z
m1399 -86 c-3 -8 -18 -13 -33 -13 l-28 2 28 4 c26 4 27 7 29 61 l2 57 3 -49
c2 -27 2 -55 -1 -62z m-288 89 c-10 -2 -26 -2 -35 0 -10 3 -2 5 17 5 19 0 27
-2 18 -5z m-18 -33 c0 -5 -4 -10 -9 -10 -6 0 -13 5 -16 10 -3 6 1 10 9 10 9 0
16 -4 16 -10z m350 -14 c0 -2 -7 -7 -16 -10 -8 -3 -12 -2 -9 4 6 10 25 14 25
6z m-1436 -38 c-9 -31 -12 -34 -26 -20 -8 8 -8 15 2 27 19 22 32 18 24 -7z
m1099 15 c-7 -2 -21 -2 -30 0 -10 3 -4 5 12 5 17 0 24 -2 18 -5z m-16 -39 c-3
-3 -12 -4 -19 -1 -8 3 -5 6 6 6 11 1 17 -2 13 -5z m-1089 -49 c-11 -25 -28
-25 -28 0 0 12 13 22 32 24 4 1 3 -10 -4 -24z m1208 -12 c-2 -22 -9 -29 -30
-31 -29 -4 -66 21 -66 45 0 9 15 13 49 13 48 0 50 -1 47 -27z m-1084 -170 c8
-10 7 -12 -6 -7 -13 5 -16 20 -14 93 l2 86 3 -80 c2 -43 9 -85 15 -92z m-172
122 c-14 -17 -36 -20 -44 -6 -4 5 3 7 14 4 13 -3 22 1 26 11 4 9 9 15 12 12 3
-3 -1 -12 -8 -21z m1240 -17 c0 -18 -2 -20 -9 -8 -6 8 -7 18 -5 22 9 14 14 9
14 -14z m-1197 -21 c-3 -5 -10 -4 -15 1 -6 6 -7 16 -3 22 6 9 9 9 16 -1 4 -7
5 -17 2 -22z m165 21 c-23 -19 -13 -74 16 -82 93 -25 168 22 119 76 -20 22
-11 24 11 2 23 -23 20 -61 -6 -78 -26 -16 -131 -29 -122 -15 3 5 -4 9 -16 9
-30 0 -45 45 -25 76 8 13 21 24 27 24 7 0 5 -5 -4 -12z m747 5 c-27 -7 -55
-33 -55 -51 0 -9 7 -24 17 -34 20 -22 11 -24 -11 -2 -34 34 -6 95 43 93 21 -1
22 -2 6 -6z m120 -27 c19 -34 19 -36 0 -55 -10 -12 -23 -21 -28 -21 -6 0 -3 6
7 13 26 19 18 68 -14 84 -23 12 -23 13 -4 13 14 0 27 -12 39 -34z m143 -13
c-10 -2 -26 -2 -35 0 -10 3 -2 5 17 5 19 0 27 -2 18 -5z m72 -24 c0 -16 -4
-28 -9 -25 -8 5 -3 56 5 56 2 0 4 -14 4 -31z m-1020 11 c-20 -13 -50 -13 -50
0 0 6 15 10 33 10 24 0 28 -3 17 -10z m-319 -31 c11 -5 17 -14 14 -20 -4 -5
-1 -9 5 -9 22 0 5 -21 -37 -46 l-42 -25 1 35 c1 19 5 33 10 30 4 -3 8 6 8 20
0 28 10 32 41 15z m61 -21 c-9 -9 -15 -9 -24 1 -11 10 -10 11 5 5 14 -5 16 -2
11 12 -6 16 -5 17 7 7 10 -10 10 -16 1 -25z m953 -8 c3 -6 -4 -10 -17 -10 -18
0 -20 2 -8 10 19 12 18 12 25 0z m42 4 c-3 -3 -12 -4 -19 -1 -8 3 -5 6 6 6 11
1 17 -2 13 -5z m-972 -24 c14 -5 24 -14 20 -20 -7 -11 -55 8 -55 22 0 10 3 10
35 -2z m170 -20 c17 -7 14 -9 -13 -9 -20 -1 -31 3 -27 9 7 12 13 12 40 0z
m258 -19 c-4 -15 3 -14 22 5 14 15 16 10 14 -55 -2 -66 -10 -88 -22 -58 -4 9
-8 8 -17 -3 -10 -13 -11 -13 -6 3 3 9 1 17 -4 17 -6 0 -10 25 -10 56 0 40 3
54 13 51 6 -2 11 -10 10 -16z m520 8 c12 -7 25 -17 29 -23 12 -18 8 -60 -7
-80 -23 -30 -43 -5 -47 59 -1 30 -2 55 0 55 2 0 13 -5 25 -11z m122 1 c3 -5 1
-10 -4 -10 -6 0 -11 5 -11 10 0 6 2 10 4 10 3 0 8 -4 11 -10z m-531 -22 c-5
-8 -2 -9 12 -3 10 4 28 7 39 7 11 -1 29 -2 40 -2 18 -1 19 -2 3 -14 -9 -7 -32
-11 -50 -10 -18 1 -43 3 -55 3 -29 1 -31 31 -2 31 13 0 18 -4 13 -12z m130 -3
c3 -8 1 -15 -4 -15 -6 0 -10 7 -10 15 0 8 2 15 4 15 2 0 6 -7 10 -15z m56 -2
c0 -7 -7 -13 -15 -13 -8 0 -15 6 -15 13 0 8 7 14 15 14 8 0 15 -6 15 -14z
m105 8 c31 12 35 11 35 -11 0 -21 -16 -28 -22 -9 -3 9 -9 9 -25 0 -27 -14 -46
-14 -38 -1 3 6 2 10 -4 10 -5 0 -13 -5 -16 -10 -4 -6 -11 -7 -17 -4 -19 12 21
34 46 25 11 -5 30 -5 41 0z m-645 -23 c0 -6 -7 -7 -16 -4 -9 3 -20 6 -25 6 -5
0 -9 4 -9 9 0 4 11 6 25 3 14 -2 25 -9 25 -14z m150 8 c0 -3 -4 -8 -10 -11 -5
-3 -10 -1 -10 4 0 6 5 11 10 11 6 0 10 -2 10 -4z m710 -6 c0 -5 -4 -10 -10
-10 -5 0 -10 5 -10 10 0 6 5 10 10 10 6 0 10 -4 10 -10z m30 -4 c0 -3 -4 -8
-10 -11 -5 -3 -10 -1 -10 4 0 6 5 11 10 11 6 0 10 -2 10 -4z m-1152 -18 c-5
-15 -33 -22 -54 -14 -24 9 -6 26 27 26 20 0 29 -4 27 -12z m232 -12 c0 -3 -4
-8 -10 -11 -5 -3 -10 -1 -10 4 0 6 5 11 10 11 6 0 10 -2 10 -4z m210 0 c0 -3
-4 -8 -10 -11 -5 -3 -10 -1 -10 4 0 6 5 11 10 11 6 0 10 -2 10 -4z m210 -15
c0 -5 -9 -7 -20 -4 -11 3 -20 7 -20 9 0 2 9 4 20 4 11 0 20 -4 20 -9z m70 -8
c0 -14 -2 -15 -9 -4 -5 7 -14 10 -20 7 -6 -4 -11 -2 -11 3 0 6 9 11 20 11 12
0 20 -7 20 -17z m140 7 c0 -5 -6 -10 -14 -10 -8 0 -18 5 -21 10 -3 6 3 10 14
10 12 0 21 -4 21 -10z m68 -10 c4 -13 3 -13 -10 -2 -13 10 -17 10 -21 0 -2 -7
-8 -10 -12 -6 -11 10 5 29 23 26 8 -2 18 -10 20 -18z m217 10 c3 -5 1 -10 -4
-10 -6 0 -11 5 -11 10 0 6 2 10 4 10 3 0 8 -4 11 -10z m-900 -30 c16 -7 14 -9
-12 -7 -17 0 -29 5 -27 9 6 10 13 9 39 -2z m1085 -10 c0 -5 -4 -10 -10 -10 -5
0 -10 5 -10 10 0 6 5 10 10 10 6 0 10 -4 10 -10z m-1215 -30 c0 -8 6 -19 14
-24 11 -7 11 -10 0 -17 -23 -14 -30 -10 -25 16 5 26 -9 44 -17 23 -2 -7 -8
-10 -12 -6 -11 11 5 29 23 26 10 -2 17 -10 17 -18z m245 3 c0 -5 -23 -9 -50
-10 -28 -1 -50 3 -50 8 0 5 23 9 50 9 28 0 50 -3 50 -7z m180 -1 c0 -5 -10
-14 -22 -21 l-23 -11 23 6 c20 5 22 2 22 -40 0 -30 -4 -46 -12 -46 -9 0 -8 -4
2 -10 21 -13 6 -12 -25 2 -21 9 -25 18 -25 52 0 48 7 62 35 69 11 2 21 5 23 6
1 0 2 -3 2 -7z m703 -9 c-7 -2 -19 -2 -25 0 -7 3 -2 5 12 5 14 0 19 -2 13 -5z
m-1010 -27 c12 4 17 1 17 -10 0 -11 9 -16 29 -16 17 0 32 -3 35 -8 2 -4 -21
-7 -52 -6 -32 1 -61 -4 -65 -10 -6 -7 -7 -6 -4 4 2 8 11 15 20 15 8 0 19 4 23
8 4 4 -2 7 -14 7 -14 0 -22 6 -22 18 0 12 2 14 8 4 5 -7 16 -10 25 -6z m217 1
c0 -8 -14 -14 -35 -15 -19 -2 -35 1 -35 6 0 5 11 8 25 7 14 -2 27 1 31 6 8 13
14 11 14 -4z m-150 -7 c0 -5 -5 -10 -11 -10 -5 0 -7 5 -4 10 3 6 8 10 11 10 2
0 4 -4 4 -10z m50 1 c0 -10 -26 -9 -36 2 -4 4 2 7 14 7 12 0 22 -4 22 -9z
m674 -12 c-3 -5 -1 -9 5 -9 5 0 12 8 14 18 3 9 5 -5 6 -31 1 -30 -3 -46 -9
-42 -6 4 -8 11 -5 16 4 5 3 14 -1 21 -5 7 -12 -3 -20 -28 l-12 -39 -1 57 c-1
47 2 56 14 52 8 -4 12 -10 9 -15z m103 -11 c-3 -8 -6 -5 -6 6 -1 11 2 17 5 13
3 -3 4 -12 1 -19z m179 9 c4 -4 -5 -7 -19 -7 -15 0 -27 4 -27 8 0 10 36 9 46
-1z m21 -9 c-3 -8 -6 -5 -6 6 -1 11 2 17 5 13 3 -3 4 -12 1 -19z m-947 -2 c0
-2 -9 -6 -20 -9 -11 -3 -18 -1 -14 4 5 9 34 13 34 5z m-259 -25 c-8 -5 -11
-16 -8 -26 4 -9 3 -14 -3 -10 -17 11 -11 45 8 45 14 0 14 -2 3 -9z m-130 -36
c0 -5 -7 -12 -16 -13 -23 -5 -47 6 -40 19 8 13 56 8 56 -6z"/>
<path d="M1530 2079 c0 -5 5 -7 10 -4 6 3 10 8 10 11 0 2 -4 4 -10 4 -5 0 -10
-5 -10 -11z"/>
<path d="M1675 2080 c-4 -6 -3 -16 3 -22 6 -6 12 -6 17 2 4 6 3 16 -3 22 -6 6
-12 6 -17 -2z"/>
<path d="M850 1560 c-8 -5 -12 -12 -9 -15 4 -3 12 1 19 10 14 17 11 19 -10 5z"/>
<path d="M820 1506 c0 -9 5 -16 10 -16 6 0 10 4 10 9 0 6 -4 13 -10 16 -5 3
-10 -1 -10 -9z"/>
<path d="M1870 1010 c0 -5 5 -10 11 -10 5 0 7 5 4 10 -3 6 -8 10 -11 10 -2 0
-4 -4 -4 -10z"/>
<path d="M1274 2479 c-3 -5 26 -9 65 -9 39 0 71 3 71 8 0 10 -129 12 -136 1z"/>
<path d="M1640 2480 c0 -5 5 -10 11 -10 5 0 7 5 4 10 -3 6 -8 10 -11 10 -2 0
-4 -4 -4 -10z"/>
<path d="M2020 2422 c0 -29 4 -52 10 -52 10 0 7 87 -4 97 -3 4 -6 -17 -6 -45z"/>
<path d="M1301 2408 c-1 -33 3 -58 9 -58 12 0 12 67 0 95 -6 14 -9 4 -9 -37z"/>
<path d="M1375 2404 c0 -30 3 -54 8 -54 4 0 7 22 7 49 0 28 -3 52 -7 54 -5 3
-8 -19 -8 -49z"/>
<path d="M1663 2410 c0 -30 2 -43 4 -27 2 15 2 39 0 55 -2 15 -4 2 -4 -28z"/>
<path d="M430 1405 c0 -45 0 -45 35 -45 35 0 35 0 35 45 0 45 0 45 -35 45 -35
0 -35 0 -35 -45z"/>
<path d="M635 1341 c-3 -5 -1 -12 5 -16 5 -3 10 1 10 9 0 18 -6 21 -15 7z"/>
<path d="M595 1330 c-3 -5 -1 -10 4 -10 6 0 11 5 11 10 0 6 -2 10 -4 10 -3 0
-8 -4 -11 -10z"/>
<path d="M670 1289 c0 -5 5 -7 10 -4 6 3 10 8 10 11 0 2 -4 4 -10 4 -5 0 -10
-5 -10 -11z"/>
<path d="M565 1280 c-3 -5 -1 -10 4 -10 6 0 11 5 11 10 0 6 -2 10 -4 10 -3 0
-8 -4 -11 -10z"/>
<path d="M590 1266 c0 -2 7 -7 16 -10 8 -3 12 -2 9 4 -6 10 -25 14 -25 6z"/>
<path d="M576 1251 c5 -10 3 -13 -9 -8 -11 4 -14 2 -11 -7 3 -8 1 -17 -5 -21
-6 -3 -11 -15 -11 -26 0 -10 -4 -19 -9 -19 -5 0 -12 -13 -16 -30 l-6 -29 -127
-4 c-70 -1 -33 -3 83 -3 120 0 184 2 150 6 l-60 7 55 1 c37 2 50 5 41 11 -8 5
-19 7 -26 5 -6 -3 -20 4 -30 16 -14 15 -21 17 -32 9 -25 -21 -13 2 14 27 15
14 28 32 29 40 1 9 0 13 -3 10 -3 -3 -12 2 -20 12 -8 9 -11 11 -7 3z"/>
<path d="M437 1243 c-5 -8 -10 -58 -8 -80 1 -8 15 -13 36 -13 l35 0 0 50 c0
49 -1 50 -29 50 -17 0 -32 -3 -34 -7z"/>
<path d="M680 1103 c0 -5 11 -9 25 -9 14 -1 22 2 19 7 -6 11 -44 12 -44 2z"/>
<path d="M788 892 c-3 -10 1 -23 8 -30 19 -18 21 -15 16 18 -5 33 -17 40 -24
12z"/>
<path d="M1501 783 c0 -16 3 -22 6 -13 3 8 10 21 16 28 7 8 5 12 -7 12 -11 0
-16 -8 -15 -27z"/>
<path d="M1714 788 c3 -13 6 -29 6 -35 0 -7 5 -13 10 -13 6 0 10 16 10 35 0
26 -4 35 -16 35 -12 0 -15 -6 -10 -22z"/>
<path d="M1452 770 c0 -14 2 -19 5 -12 2 6 2 18 0 25 -3 6 -5 1 -5 -13z"/>
<path d="M1650 760 c0 -11 7 -20 15 -20 8 0 15 9 15 20 0 11 -7 20 -15 20 -8
0 -15 -9 -15 -20z"/>
</g>
</svg>
